{
  "accessors": [
    {
      "bufferView": 2,
      "componentType": 5126,
      "count": 17222,
      "max": [
        4.515213489532471,
        25.089174270629883,
        10.52065372467041
      ],
      "min": [
        -4.420616626739502,
        -0.19019049406051636,
        -11.163970947265625
      ],
      "type": "VEC3"
    },
    {
      "bufferView": 2,
      "byteOffset": 206664,
      "componentType": 5126,
      "count": 17222,
      "max": [
        0.9999316930770874,
        0.9999368190765381,
        0.9998553395271301
      ],
      "min": [
        -0.9999891519546509,
        -1.0,
        -0.9996581673622131
      ],
      "type": "VEC3"
    },
    {
      "bufferView": 3,
      "componentType": 5126,
      "count": 17222,
      "max": [
        0.9993774890899658,
        0.9893636703491211,
        0.9941284656524658,
        1.0
      ],
      "min": [
        -0.9999530911445618,
        -0.9999802708625793,
        -0.9998949766159058,
        -1.0
      ],
      "type": "VEC4"
    },
    {
      "bufferView": 1,
      "componentType": 5126,
      "count": 17222,
      "max": [
        0.7441062927246094,
        0.9980469346046448
      ],
      "min": [
        0.0019531380385160446,
        0.0019531380385160446
      ],
      "type": "VEC2"
    },
    {
      "bufferView": 0,
      "componentType": 5125,
      "count": 101598,
      "type": "SCALAR"
    }
  ],
  "asset": {
    "extras": {
      "author": "Nicolas (https://sketchfab.com/mBlaster)",
      "license": "CC-BY-4.0 (http://creativecommons.org/licenses/by/4.0/)",
      "source": "https://sketchfab.com/3d-models/boutelot-gourde-de-mineur-4c665517fcb64b07a10a1854778e7870",
      "title": "Boutelot (gourde de mineur)"
    },
    "generator": "Sketchfab-10.85.0",
    "version": "2.0"
  },
  "bufferViews": [
    {
      "buffer": 0,
      "byteLength": 406392,
      "name": "floatBufferViews",
      "target": 34963
    },
    {
      "buffer": 0,
      "byteLength": 137776,
      "byteOffset": 406392,
      "byteStride": 8,
      "name": "floatBufferViews",
      "target": 34962
    },
    {
      "buffer": 0,
      "byteLength": 413328,
      "byteOffset": 544168,
      "byteStride": 12,
      "name": "floatBufferViews",
      "target": 34962
    },
    {
      "buffer": 0,
      "byteLength": 275552,
      "byteOffset": 957496,
      "byteStride": 16,
      "name": "floatBufferViews",
      "target": 34962
    }
  ],
  "buffers": [
    {
      "byteLength": 1233048,
      "uri": "scene.bin"
    }
  ],
  "images": [
    {
      "uri": "textures/CL_meshNode1_baseColor.png"
    },
    {
      "uri": "textures/CL_meshNode1_metallicRoughness.png"
    },
    {
      "uri": "textures/CL_meshNode1_normal.png"
    }
  ],
  "materials": [
    {
      "doubleSided": true,
      "name": "CL_meshNode1",
      "normalTexture": {
        "index": 2
      },
      "occlusionTexture": {
        "index": 1
      },
      "pbrMetallicRoughness": {
        "baseColorTexture": {
          "index": 0
        },
        "metallicRoughnessTexture": {
          "index": 1
        }
      }
    }
  ],
  "meshes": [
    {
      "name": "CL_meshNode1_CL_meshNode1_0",
      "primitives": [
        {
          "attributes": {
            "NORMAL": 1,
            "POSITION": 0,
            "TANGENT": 2,
            "TEXCOORD_0": 3
          },
          "indices": 4,
          "material": 0,
          "mode": 4
        }
      ]
    }
  ],
  "nodes": [
    {
      "children": [
        1
      ],
      "matrix": [
        -1.0,
        2.8327693431939985e-16,
        1.60812262295773e-16,
        0.0,
        -1.6081226229577292e-16,
        2.2204460492503136e-16,
        -1.0,
        0.0,
        -2.832769343193999e-16,
        -1.0,
        -2.2204460492503128e-16,
        0.0,
        0.09458303451538086,
        -24.89900016784668,
        -6.4168670749979295e-15,
        1.0
      ],
      "name": "Sketchfab_model"
    },
    {
      "children": [
        2
      ],
      "matrix": [
        1.0,
        0.0,
        0.0,
        0.0,
        0.0,
        -1.0,
        0.0,
        0.0,
        0.0,
        0.0,
        -1.0,
        0.0,
        0.0,
        0.0,
        0.0,
        1.0
      ],
      "name": "094535dca7c54f129fb01cf893a32bf3.fbx"
    },
    {
      "children": [
        3
      ],
      "name": "RootNode"
    },
    {
      "children": [
        4
      ],
      "matrix": [
        1.0,
        0.0,
        0.0,
        0.0,
        0.0,
        2.220446049250313e-16,
        1.0,
        0.0,
        0.0,
        -1.0,
        2.220446049250313e-16,
        0.0,
        0.0,
        0.0,
        0.0,
        1.0
      ],
      "name": "CL_meshNode1"
    },
    {
      "mesh": 0,
      "name": "CL_meshNode1_CL_meshNode1_0"
    }
  ],
  "samplers": [
    {
      "magFilter": 9729,
      "minFilter": 9987,
      "wrapS": 10497,
      "wrapT": 10497
    }
  ],
  "scene": 0,
  "scenes": [
    {
      "name": "Sketchfab_Scene",
      "nodes": [
        0
      ]
    }
  ],
  "textures": [
    {
      "sampler": 0,
      "source": 0
    },
    {
      "sampler": 0,
      "source": 1
    },
    {
      "sampler": 0,
      "source": 2
    }
  ]
}
